<svg width="1920" height="1080" viewBox="0 0 1920 1080" fill="none" xmlns="http://www.w3.org/2000/svg">
<rect y="-60" width="1920" height="1200" fill="#060039"/>
<mask id="mask0_1_188" style="mask-type:alpha" maskUnits="userSpaceOnUse" x="0" y="-60" width="1920" height="1200">
<rect y="-60" width="1920" height="1200" fill="#060039"/>
</mask>
<g mask="url(#mask0_1_188)">
<path d="M1913 833C1913 865.033 1882.11 891 1844 891C1805.89 891 1775 865.033 1775 833" stroke="#44AB96" stroke-width="13" stroke-linecap="round" stroke-linejoin="round"/>
<path d="M164.683 1246C75.0564 1246 2.40002 1185.79 2.40002 1111.5C2.40002 1037.21 75.0564 977 164.683 977H313.2" stroke="#FFB017" stroke-width="13" stroke-linecap="round" stroke-linejoin="round"/>
<path d="M154.776 1154C124.965 1154 100.8 1134.53 100.8 1110.5C100.8 1086.47 124.965 1067 154.776 1067H212.4" stroke="#44AB96" stroke-width="13" stroke-linecap="round" stroke-linejoin="round"/>
<path d="M1913 296V127.681C1913 94.7197 1880.76 68 1841 68C1801.24 68 1769 94.7197 1769 127.681V153.734" stroke="#DA774A" stroke-width="13" stroke-linecap="round" stroke-linejoin="round"/>
<path d="M807.6 806.036C811.19 806.036 814.1 803.126 814.1 799.536C814.1 795.946 811.19 793.036 807.6 793.036V806.036ZM681.147 968.956C684.737 968.956 687.647 966.046 687.647 962.456C687.647 958.866 684.737 955.956 681.147 955.956V968.956ZM440.208 1252.5C443.798 1252.5 446.708 1249.59 446.708 1246C446.708 1242.41 443.798 1239.5 440.208 1239.5V1252.5ZM688.286 1047.05C688.286 1043.46 685.376 1040.55 681.786 1040.55C678.196 1040.55 675.286 1043.46 675.286 1047.05H688.286ZM474.214 422C474.214 418.41 471.304 415.5 467.714 415.5C464.124 415.5 461.214 418.41 461.214 422H474.214ZM801.1 713.376C801.1 716.966 804.01 719.876 807.6 719.876C811.19 719.876 814.1 716.966 814.1 713.376H801.1ZM807.6 793.036H592.276V806.036H807.6V793.036ZM592.276 793.036C535.607 793.036 487.503 831.329 487.503 880.996H500.503C500.503 840.686 540.397 806.036 592.276 806.036V793.036ZM487.503 880.996C487.503 930.663 535.607 968.956 592.276 968.956V955.956C540.397 955.956 500.503 921.307 500.503 880.996H487.503ZM592.276 968.956H681.147V955.956H592.276V968.956ZM440.208 1239.5H427.372V1252.5H440.208V1239.5ZM427.372 1239.5C391.939 1239.5 365.3 1215.74 365.3 1188.8H352.3C352.3 1225.03 387.064 1252.5 427.372 1252.5V1239.5ZM365.3 1188.8C365.3 1161.84 391.94 1138.08 427.372 1138.08V1125.08C387.063 1125.08 352.3 1152.56 352.3 1188.8H365.3ZM427.372 1138.08H580.467V1125.08H427.372V1138.08ZM580.467 1138.08C638.861 1138.08 688.286 1098.38 688.286 1047.05H675.286C675.286 1089.09 633.987 1125.08 580.467 1125.08V1138.08ZM461.214 422V486.285H474.214V422H461.214ZM461.214 486.285C461.214 569.232 541.362 634.566 637.656 634.566V621.566C546.237 621.566 474.214 559.946 474.214 486.285H461.214ZM637.656 634.566H705.344V621.566H637.656V634.566ZM705.344 634.566C759.381 634.566 801.1 670.904 801.1 713.376H814.1C814.1 661.618 764.255 621.566 705.344 621.566V634.566Z" fill="#DA774A"/>
<path fill-rule="evenodd" clip-rule="evenodd" d="M705.6 267C732.11 267 753.6 249.091 753.6 227C753.6 204.909 732.11 187 705.6 187C679.09 187 657.6 204.909 657.6 227C657.6 249.091 679.09 267 705.6 267Z" stroke="#44AB96" stroke-width="13" stroke-linecap="round" stroke-linejoin="round"/>
<path fill-rule="evenodd" clip-rule="evenodd" d="M837.6 1087C876.039 1087 907.2 1061.26 907.2 1029.5C907.2 997.744 876.039 972 837.6 972C799.161 972 768 997.744 768 1029.5C768 1061.26 799.161 1087 837.6 1087Z" stroke="#E53855" stroke-width="13" stroke-linecap="round" stroke-linejoin="round"/>
<path fill-rule="evenodd" clip-rule="evenodd" d="M220.8 154C262.553 154 296.4 125.794 296.4 91C296.4 56.2061 262.553 28 220.8 28C179.047 28 145.2 56.2061 145.2 91C145.2 125.794 179.047 154 220.8 154Z" stroke="#44AB96" stroke-width="13" stroke-linecap="round" stroke-linejoin="round"/>
<path d="M221.4 228C314.515 228 390 165.992 390 89.5C390 13.0084 314.515 -49 221.4 -49C128.285 -49 52.8 13.0084 52.8 89.5" stroke="#FFB017" stroke-width="13" stroke-linecap="round" stroke-linejoin="round"/>
<path d="M1573.45 1058.46C1547.84 1138.27 1603.25 1220.01 1697.22 1241.04C1791.18 1262.05 1888.13 1214.39 1913.75 1134.57C1939.36 1054.76 1883.95 973.023 1789.98 952" stroke="#44AB96" stroke-width="13" stroke-linecap="round" stroke-linejoin="round"/>
<path d="M578.196 1053.5C581.786 1053.5 584.696 1050.59 584.696 1047C584.696 1043.41 581.786 1040.5 578.196 1040.5V1053.5ZM426.234 794.003C428.24 791.026 427.453 786.986 424.476 784.98C421.499 782.974 417.459 783.761 415.453 786.738L426.234 794.003ZM704.4 715.5C707.99 715.5 710.9 712.59 710.9 709C710.9 705.41 707.99 702.5 704.4 702.5V715.5ZM467.29 734.844C464.279 736.799 463.422 740.825 465.377 743.836C467.332 746.847 471.357 747.703 474.368 745.748L467.29 734.844ZM578.196 1040.5C479.266 1040.5 400.1 967.43 400.1 878.512H387.1C387.1 975.701 473.229 1053.5 578.196 1053.5V1040.5ZM400.1 878.512C400.1 847.568 409.637 818.634 426.234 794.003L415.453 786.738C397.494 813.392 387.1 844.833 387.1 878.512H400.1ZM704.4 702.5H578.643V715.5H704.4V702.5ZM578.643 702.5C537.151 702.5 498.684 714.464 467.29 734.844L474.368 745.748C503.65 726.739 539.657 715.5 578.643 715.5V702.5Z" fill="#DA774A"/>
<path d="M394.2 248C356.092 248 325.2 273.743 325.2 305.5C325.2 337.257 356.092 363 394.2 363C432.308 363 463.2 337.257 463.2 305.5V248" stroke="#44AB96" stroke-width="13" stroke-linecap="round" stroke-linejoin="round"/>
<path d="M85.8 700.582C41.7277 700.582 6 671.127 6 634.791C6 598.455 41.7277 569 85.8 569C129.873 569 165.6 598.455 165.6 634.791V836" stroke="#44AB96" stroke-width="13" stroke-linecap="round" stroke-linejoin="round"/>
<path d="M1754.39 704C1754.39 737.689 1786.63 765 1826.4 765C1866.17 765 1898.4 737.689 1898.4 704C1898.4 670.311 1866.17 643 1826.4 643H1585.2" stroke="#44AB96" stroke-width="13" stroke-linecap="round" stroke-linejoin="round"/>
<path d="M1159.2 -26.2092C1116.78 -26.2092 1082.4 2.0434 1082.4 36.8954C1082.4 71.7474 1116.78 100 1159.2 100C1201.62 100 1236 71.7474 1236 36.8954V-166" stroke="#4484AB" stroke-width="13" stroke-linecap="round" stroke-linejoin="round"/>
<path d="M1307.4 396.578C1345.51 396.578 1376.4 422.191 1376.4 453.789C1376.4 485.386 1345.51 511 1307.4 511C1269.29 511 1238.4 485.386 1238.4 453.789V240" stroke="#DA774A" stroke-width="13" stroke-linecap="round" stroke-linejoin="round"/>
<path d="M75 402.708C36.8923 402.708 6 428.069 6 459.354C6 490.639 36.8923 516 75 516C113.108 516 144 490.639 144 459.354V228" stroke="#DA774A" stroke-width="13" stroke-linecap="round" stroke-linejoin="round"/>
<path d="M826.445 228C826.445 171.115 771.992 125 704.822 125C637.653 125 583.2 171.115 583.2 228C583.2 284.885 637.653 331 704.822 331H1023.6" stroke="#FFB017" stroke-width="13" stroke-linecap="round" stroke-linejoin="round"/>
<path d="M1791.37 561C1858.55 561 1913 514.885 1913 458C1913 401.115 1858.55 355 1791.37 355H1472.6" stroke="#44AB96" stroke-width="13" stroke-linecap="round" stroke-linejoin="round"/>
<path fill-rule="evenodd" clip-rule="evenodd" d="M1328.4 9.5C1328.4 -43.7958 1379.69 -87 1442.95 -87H1560.65C1623.92 -87 1675.2 -43.7958 1675.2 9.5V9.5C1675.2 62.7958 1623.92 106 1560.65 106H1442.95C1379.69 106 1328.4 62.7958 1328.4 9.5V9.5Z" stroke="#DA774A" stroke-width="13" stroke-linecap="round" stroke-linejoin="round"/>
<path fill-rule="evenodd" clip-rule="evenodd" d="M319.8 705C280.367 705 248.4 678.406 248.4 645.6V476.4C248.4 443.594 280.367 417 319.8 417V417C359.233 417 391.2 443.594 391.2 476.4V645.6C391.2 678.406 359.233 705 319.8 705V705Z" stroke="#FFB017" stroke-width="13" stroke-linecap="round" stroke-linejoin="round"/>
<path d="M993.6 629.5V540.166C993.6 514.669 1018.58 494 1049.4 494V494C1080.22 494 1105.2 514.669 1105.2 540.166V718.834C1105.2 744.331 1080.22 765 1049.4 765V765V765C1018.58 765 993.6 744.331 993.6 718.834V697.25" stroke="#E53855" stroke-width="13" stroke-linecap="round" stroke-linejoin="round"/>
<path d="M1096.8 151.93V159.719C1096.8 204.057 1053.55 240 1000.2 240V240C946.849 240 903.6 204.057 903.6 159.719V-84.7189C903.6 -129.057 946.849 -165 1000.2 -165V-165C1053.55 -165 1096.8 -129.057 1096.8 -84.7189V-82.3225" stroke="#FFB017" stroke-width="13" stroke-linecap="round" stroke-linejoin="round"/>
<path d="M86.1 786H80.327C39.2774 786 6 813.758 6 848V848C6 882.242 39.2773 910 80.327 910H252.073C293.123 910 326.4 882.242 326.4 848V848C326.4 813.758 293.123 786 252.073 786H246.3" stroke="#FFB017" stroke-width="13" stroke-linecap="round" stroke-linejoin="round"/>
<path d="M901.2 494V725.637C901.2 794.873 969.163 851 1053 851C1136.84 851 1204.8 794.873 1204.8 725.637V670.909" stroke="#44AB96" stroke-width="13" stroke-linecap="round" stroke-linejoin="round"/>
<path d="M596.4 886H845.762C940.666 886 1017.6 950.471 1017.6 1030C1017.6 1109.52 940.666 1174 845.762 1174H770.745" stroke="#44AB96" stroke-width="13" stroke-linecap="round" stroke-linejoin="round"/>
<path d="M703.2 535H644.176C604.535 535 572.4 508.137 572.4 475C572.4 441.863 604.535 415 644.176 415H762.224C801.865 415 834 441.863 834 475V480.33C834 510.524 804.719 535 768.6 535" stroke="#4484AB" stroke-width="13" stroke-linecap="round" stroke-linejoin="round"/>
<path d="M1307.4 306H1374.82C1420.09 306 1456.8 277.122 1456.8 241.5C1456.8 205.878 1420.09 177 1374.82 177H1239.98C1194.7 177 1158 205.878 1158 241.5" stroke="#44AB96" stroke-width="13" stroke-linecap="round" stroke-linejoin="round"/>
<path d="M810 37H648.383C546.109 37 463.2 106.396 463.2 192" stroke="#44AB96" stroke-width="13" stroke-linecap="round" stroke-linejoin="round"/>
<path d="M1739.4 1040.84C1777.51 1040.84 1808.4 1066.4 1808.4 1097.92C1808.4 1129.44 1777.51 1155 1739.4 1155C1701.29 1155 1670.4 1129.44 1670.4 1097.92V726" stroke="#E53855" stroke-width="13" stroke-linecap="round" stroke-linejoin="round"/>
<path d="M1222.8 1078C1222.8 1019.46 1279.02 972 1348.36 972H1569.6" stroke="#44AB96" stroke-width="13" stroke-linecap="round" stroke-linejoin="round"/>
<path d="M896.4 415H1014.45C1093.73 415 1158 361.274 1158 295" stroke="#4484AB" stroke-width="13" stroke-linecap="round" stroke-linejoin="round"/>
<path d="M1585.2 728V781.755C1585.2 836.014 1532.4 880 1467.25 880H1375.2" stroke="#4484AB" stroke-width="13" stroke-linecap="round" stroke-linejoin="round"/>
<path d="M1808.4 460H1707.59C1634.69 460 1575.6 509.697 1575.6 571" stroke="#DA774A" stroke-width="13" stroke-linecap="round" stroke-linejoin="round"/>
<path d="M261.6 1246V1154.88C261.6 1102.42 310.77 1058.47 376.8 1047" stroke="#44AB96" stroke-width="13" stroke-linecap="round" stroke-linejoin="round"/>
<path d="M53.4 160C53.4 169.313 53.4 286.548 53.4 344" stroke="#44AB96" stroke-width="13" stroke-linecap="round" stroke-linejoin="round"/>
<path d="M1306.2 583C1306.2 590.693 1306.2 687.539 1306.2 735" stroke="#44AB96" stroke-width="13" stroke-linecap="round" stroke-linejoin="round"/>
<path d="M1121.4 996C1121.4 999.138 1121.4 1038.64 1121.4 1058" stroke="#44AB96" stroke-width="13" stroke-linecap="round" stroke-linejoin="round"/>
<path d="M1486.1 421C1486.1 417.41 1483.19 414.5 1479.6 414.5C1476.01 414.5 1473.1 417.41 1473.1 421H1486.1ZM1342.29 786.605C1338.7 786.605 1335.79 789.515 1335.79 793.105C1335.79 796.695 1338.7 799.605 1342.29 799.605V786.605ZM1144.8 919.5C1141.21 919.5 1138.3 922.41 1138.3 926C1138.3 929.59 1141.21 932.5 1144.8 932.5V919.5ZM1303.65 825.938C1303.65 822.348 1300.74 819.438 1297.15 819.438C1293.56 819.438 1290.65 822.348 1290.65 825.938H1303.65ZM1473.1 421V563.331H1486.1V421H1473.1ZM1473.1 563.331C1473.1 581.032 1455.27 597.366 1430.56 597.366V610.366C1460.02 610.366 1486.1 590.42 1486.1 563.331H1473.1ZM1430.56 597.366C1401.1 597.366 1375.02 617.33 1375.02 644.417H1388.02C1388.02 626.712 1405.86 610.366 1430.56 610.366V597.366ZM1375.02 644.417V652.828H1388.02V644.417H1375.02ZM1375.02 652.828C1375.02 679.914 1401.1 699.879 1430.56 699.879V686.879C1405.86 686.879 1388.02 670.532 1388.02 652.828H1375.02ZM1430.56 699.879C1455.27 699.879 1473.1 716.225 1473.1 733.93H1486.1C1486.1 706.843 1460.03 686.879 1430.56 686.879V699.879ZM1473.1 733.93V743.242H1486.1V733.93H1473.1ZM1473.1 743.242C1473.1 766.09 1450.22 786.605 1419.3 786.605V799.605C1454.98 799.605 1486.1 775.472 1486.1 743.242H1473.1ZM1419.3 786.605H1388.06V799.605H1419.3V786.605ZM1388.06 786.605H1342.29V799.605H1388.06V786.605ZM1144.8 932.5H1176.93V919.5H1144.8V932.5ZM1176.93 932.5C1245.75 932.5 1303.65 885.857 1303.65 825.938H1290.65C1290.65 876.545 1240.91 919.5 1176.93 919.5V932.5Z" fill="#FFB017"/>
<path d="M1777.2 223.921V244.203C1777.2 272.81 1749.28 296 1714.87 296V296C1680.44 296 1652.52 272.81 1652.52 244.203V227.403C1652.52 199.014 1624.82 176 1590.67 176V176C1556.5 176 1528.8 199.014 1528.8 227.403V248.079" stroke="#E53855" stroke-width="13" stroke-linecap="round" stroke-linejoin="round"/>
<path fill-rule="evenodd" clip-rule="evenodd" d="M1306.8 1119.97C1306.8 1079.67 1346.02 1047 1394.4 1047V1047C1442.78 1047 1482 1079.67 1482 1119.97V1173.03C1482 1213.33 1442.78 1246 1394.4 1246V1246C1346.02 1246 1306.8 1213.33 1306.8 1173.03V1119.97Z" stroke="#4484AB" stroke-width="13" stroke-linecap="round" stroke-linejoin="round"/>
</g>
</svg>
